<svg width="50" height="50" viewBox="0 0 50 50" fill="none" xmlns="http://www.w3.org/2000/svg">
<path d="M44.1061 32.0793L31.7894 11.5501C30.1728 8.85636 27.6998 7.3147 24.9998 7.3147C22.2998 7.3147 19.8269 8.85636 18.2103 11.5459L5.89359 32.0793C4.25609 34.8064 4.07693 37.7147 5.40401 40.0584C6.72901 42.4043 9.31651 43.7501 12.4998 43.7501H37.4998C40.6832 43.7501 43.2707 42.4043 44.5957 40.0605C45.9207 37.7168 45.7436 34.8084 44.1061 32.0793ZM24.9998 36.5605C23.2207 36.5605 21.7707 35.1126 21.7707 33.3334C21.7707 31.5522 23.2186 30.1022 24.9998 30.1022C26.7811 30.1022 28.229 31.5522 28.229 33.3334C28.229 35.1126 26.779 36.5605 24.9998 36.5605ZM28.4019 21.0939C28.379 21.1584 25.4832 28.3189 25.4832 28.3189C25.404 28.5147 25.2123 28.6439 25.0019 28.6439C24.7915 28.6439 24.5998 28.5147 24.5207 28.3189L21.6228 21.1564C21.4489 20.7222 21.3577 20.2594 21.354 19.7918C21.354 17.7814 22.9894 16.1459 24.9998 16.1459C25.5903 16.1475 26.1716 16.2922 26.6938 16.5677C27.216 16.8433 27.6636 17.2414 27.9981 17.7279C28.3327 18.2145 28.5442 18.7749 28.6145 19.3612C28.6848 19.9474 28.6119 20.542 28.4019 21.0939Z" fill="#AA2B1D"/>
</svg>
