<svg width="35" height="35" viewBox="0 0 35 35" fill="none" xmlns="http://www.w3.org/2000/svg">
<path d="M21.875 5.83341V2.91675M21.875 5.83341V8.75008M21.875 5.83341H15.3125M4.375 14.5834V27.7084C4.375 28.482 4.68229 29.2238 5.22927 29.7708C5.77625 30.3178 6.51812 30.6251 7.29167 30.6251H27.7083C28.4819 30.6251 29.2237 30.3178 29.7707 29.7708C30.3177 29.2238 30.625 28.482 30.625 27.7084V14.5834M4.375 14.5834H30.625M4.375 14.5834V8.75008C4.375 7.97653 4.68229 7.23467 5.22927 6.68769C5.77625 6.14071 6.51812 5.83341 7.29167 5.83341H10.2083M30.625 14.5834V8.75008C30.625 7.97653 30.3177 7.23467 29.7707 6.68769C29.2237 6.14071 28.4819 5.83341 27.7083 5.83341H26.9792M10.2083 2.91675V8.75008" stroke="#8A8635" stroke-width="1.5" stroke-linecap="round" stroke-linejoin="round"/>
</svg>
