<svg width="25" height="26" viewBox="0 0 25 26" fill="none" xmlns="http://www.w3.org/2000/svg">
<path d="M2.52083 5.52083V5C2.3827 5 2.25022 5.05487 2.15255 5.15255C2.05487 5.25022 2 5.3827 2 5.52083H2.52083ZM21.2708 5.52083H21.7917C21.7917 5.3827 21.7368 5.25022 21.6391 5.15255C21.5414 5.05487 21.409 5 21.2708 5V5.52083ZM2.52083 6.04167H21.2708V5H2.52083V6.04167ZM20.75 5.52083V18.0208H21.7917V5.52083H20.75ZM19.1875 19.5833H4.60417V20.625H19.1875V19.5833ZM3.04167 18.0208V5.52083H2V18.0208H3.04167ZM4.60417 19.5833C4.18977 19.5833 3.79234 19.4187 3.49931 19.1257C3.20629 18.8327 3.04167 18.4352 3.04167 18.0208H2C2 18.7115 2.27437 19.3739 2.76274 19.8623C3.25112 20.3506 3.9135 20.625 4.60417 20.625V19.5833ZM20.75 18.0208C20.75 18.4352 20.5854 18.8327 20.2924 19.1257C19.9993 19.4187 19.6019 19.5833 19.1875 19.5833V20.625C19.8782 20.625 20.5405 20.3506 21.0289 19.8623C21.5173 19.3739 21.7917 18.7115 21.7917 18.0208H20.75Z" fill="#AA2B1D"/>
<path d="M2.521 5.52075L11.896 14.8958L21.271 5.52075" stroke="#AA2B1D" stroke-linecap="round" stroke-linejoin="round"/>
</svg>
