<svg width="50" height="50" viewBox="0 0 50 50" fill="none" xmlns="http://www.w3.org/2000/svg">
<path d="M42.1876 5.46875H32.8126C32.191 5.46875 31.5949 5.71568 31.1554 6.15522C30.7158 6.59476 30.4689 7.1909 30.4689 7.8125C30.4689 8.4341 30.7158 9.03024 31.1554 9.46978C31.5949 9.90932 32.191 10.1562 32.8126 10.1562H36.5236L30.1329 16.5508C26.8107 14.0679 22.6715 12.9355 18.548 13.3813C14.4246 13.8271 10.623 15.8181 7.90823 18.9536C5.19346 22.0892 3.76699 26.1366 3.91585 30.2814C4.06471 34.4262 5.77786 38.3608 8.71056 41.2935C11.6433 44.2262 15.5779 45.9393 19.7227 46.0882C23.8675 46.237 27.9149 44.8106 31.0504 42.0958C34.1859 39.381 36.1769 35.5795 36.6227 31.456C37.0685 27.3326 35.9361 23.1933 33.4533 19.8711L39.8439 13.4766V17.1875C39.8439 17.8091 40.0908 18.4052 40.5304 18.8448C40.9699 19.2843 41.566 19.5312 42.1876 19.5312C42.8092 19.5312 43.4054 19.2843 43.8449 18.8448C44.2845 18.4052 44.5314 17.8091 44.5314 17.1875V7.8125C44.5314 7.1909 44.2845 6.59476 43.8449 6.15522C43.4054 5.71568 42.8092 5.46875 42.1876 5.46875ZM28.5958 37.9805C26.9568 39.6189 24.8687 40.7345 22.5956 41.1863C20.3225 41.6381 17.9665 41.4057 15.8254 40.5186C13.6844 39.6315 11.8545 38.1295 10.567 36.2025C9.27953 34.2754 8.59236 32.0099 8.59236 29.6924C8.59236 27.3748 9.27953 25.1093 10.567 23.1823C11.8545 21.2553 13.6844 19.7532 15.8254 18.8661C17.9665 17.979 20.3225 17.7467 22.5956 18.1985C24.8687 18.6502 26.9568 19.7659 28.5958 21.4043C30.7898 23.6047 32.0218 26.5851 32.0218 29.6924C32.0218 32.7996 30.7898 35.7801 28.5958 37.9805Z" fill="#AA2B1D"/>
</svg>
