<svg width="50" height="50" viewBox="0 0 50 50" fill="none" xmlns="http://www.w3.org/2000/svg">
<path d="M38.0211 3.73535L42.4034 8.11764C42.5931 8.3141 42.6981 8.57723 42.6958 8.85035C42.6934 9.12347 42.5838 9.38474 42.3907 9.57787C42.1976 9.771 41.9363 9.88055 41.6632 9.88293C41.3901 9.8853 41.1269 9.78031 40.9305 9.59056L39.0628 7.72285V45.8333H36.9794V7.72285L35.1117 9.59056C35.0156 9.69005 34.9007 9.76941 34.7736 9.824C34.6465 9.87859 34.5098 9.90733 34.3715 9.90853C34.2332 9.90973 34.096 9.88337 33.968 9.831C33.84 9.77862 33.7237 9.70128 33.6259 9.60347C33.5281 9.50567 33.4507 9.38936 33.3984 9.26135C33.346 9.13333 33.3196 8.99616 33.3208 8.85785C33.322 8.71954 33.3508 8.58285 33.4054 8.45576C33.46 8.32868 33.5393 8.21373 33.6388 8.11764L38.0211 3.73535Z" fill="#AA2B1D"/>
<path fill-rule="evenodd" clip-rule="evenodd" d="M30.2085 9.37484C30.2085 10.7562 29.6597 12.0809 28.683 13.0577C27.7062 14.0344 26.3815 14.5832 25.0001 14.5832C23.6188 14.5832 22.294 14.0344 21.3173 13.0577C20.3405 12.0809 19.7918 10.7562 19.7918 9.37484C19.7918 7.9935 20.3405 6.66874 21.3173 5.69199C22.294 4.71524 23.6188 4.1665 25.0001 4.1665C26.3815 4.1665 27.7062 4.71524 28.683 5.69199C29.6597 6.66874 30.2085 7.9935 30.2085 9.37484ZM28.1251 9.37484C28.1251 10.2036 27.7959 10.9985 27.2098 11.5845C26.6238 12.1706 25.8289 12.4998 25.0001 12.4998C24.1713 12.4998 23.3765 12.1706 22.7904 11.5845C22.2044 10.9985 21.8751 10.2036 21.8751 9.37484C21.8751 8.54604 22.2044 7.75118 22.7904 7.16513C23.3765 6.57908 24.1713 6.24984 25.0001 6.24984C25.8289 6.24984 26.6238 6.57908 27.2098 7.16513C27.7959 7.75118 28.1251 8.54604 28.1251 9.37484ZM29.0762 45.8332C28.2962 45.8332 27.5444 45.5416 26.9684 45.0156C26.3925 44.4896 26.0341 43.7673 25.9637 42.9905L25.1803 34.3748H24.8189L24.0355 42.9905C24.0189 43.1775 23.9854 43.3626 23.9355 43.5436C23.7528 44.2021 23.3593 44.7826 22.8152 45.1961C22.2711 45.6097 21.6064 45.8334 20.923 45.8332H20.8335C20.0047 45.8332 19.2098 45.5039 18.6237 44.9179C18.0377 44.3318 17.7085 43.537 17.7085 42.7082V33.5488C17.2038 33.1727 16.7909 32.6871 16.5008 32.1285C16.2107 31.57 16.0509 30.953 16.0335 30.3238L15.7585 20.4103C15.7419 19.8147 15.8532 19.2225 16.0849 18.6737C16.3166 18.1248 16.6633 17.632 17.1016 17.2285C17.5399 16.8251 18.0597 16.5203 18.6258 16.3347C19.192 16.1492 19.7913 16.0872 20.3835 16.153L24.5397 16.6155C24.8466 16.6488 25.1536 16.6488 25.4605 16.6155L29.4814 16.1675C30.0832 16.1006 30.6925 16.1657 31.2666 16.3582C31.8408 16.5507 32.3661 16.8661 32.806 17.2823C33.2458 17.6986 33.5896 18.2057 33.8135 18.7684C34.0374 19.3311 34.1359 19.9358 34.1022 20.5405L33.5522 30.4394C33.494 31.4853 33.044 32.4708 32.2918 33.1998V42.7082C32.2918 43.537 31.9625 44.3318 31.3765 44.9179C30.7904 45.5039 29.9956 45.8332 29.1668 45.8332H29.0762ZM19.7918 33.5488C19.7918 33.2245 19.7161 32.9047 19.5707 32.6148C19.4253 32.3249 19.2142 32.0729 18.9543 31.879C18.7016 31.6909 18.4949 31.448 18.3497 31.1685C18.2044 30.8891 18.1245 30.5803 18.1157 30.2655L17.8407 20.353C17.8324 20.0552 17.888 19.759 18.0038 19.4845C18.1196 19.21 18.2929 18.9636 18.5121 18.7618C18.7313 18.56 18.9912 18.4075 19.2743 18.3147C19.5574 18.2219 19.8571 18.1909 20.1532 18.2238L24.3095 18.6863C24.7678 18.7373 25.2314 18.7373 25.6907 18.6863L29.7116 18.2384C30.0126 18.2049 30.3173 18.2374 30.6045 18.3338C30.8916 18.4301 31.1544 18.5879 31.3743 18.7961C31.5942 19.0043 31.7661 19.258 31.878 19.5395C31.9899 19.821 32.039 20.1235 32.022 20.4259L31.472 30.3238C31.4429 30.8467 31.2179 31.3395 30.8418 31.704C30.6414 31.8982 30.4821 32.1307 30.3733 32.3877C30.2645 32.6446 30.2085 32.9208 30.2085 33.1998V42.7082C30.2085 42.9844 30.0987 43.2494 29.9034 43.4447C29.708 43.6401 29.4431 43.7498 29.1668 43.7498H29.0762C28.8161 43.7499 28.5655 43.6526 28.3735 43.4772C28.1815 43.3018 28.0621 43.0609 28.0387 42.8019L27.2553 34.1863C27.2085 33.6683 26.9697 33.1866 26.5857 32.8358C26.2017 32.4849 25.7004 32.2904 25.1803 32.2905H24.8189C24.2988 32.2904 23.7975 32.4849 23.4135 32.8358C23.0295 33.1866 22.7907 33.6683 22.7439 34.1863L21.9605 42.8019C21.9372 43.0607 21.8179 43.3015 21.6261 43.4768C21.4343 43.6522 21.1839 43.7496 20.9241 43.7498H20.8335C20.5572 43.7498 20.2922 43.6401 20.0969 43.4447C19.9015 43.2494 19.7918 42.9844 19.7918 42.7082V33.5488Z" fill="#AA2B1D"/>
</svg>
