<svg width="42" height="40" viewBox="0 0 42 40" fill="none" xmlns="http://www.w3.org/2000/svg">
<path d="M10.4167 18.75C9.18552 18.75 7.96644 18.5075 6.82901 18.0364C5.69158 17.5652 4.65809 16.8747 3.78754 16.0041C2.91699 15.1336 2.22643 14.1001 1.7553 12.9627C1.28416 11.8252 1.04167 10.6061 1.04167 9.375C1.04167 8.14386 1.28416 6.92477 1.7553 5.78734C2.22643 4.64992 2.91699 3.61642 3.78754 2.74587C4.65809 1.87532 5.69158 1.18477 6.82901 0.713629C7.96644 0.242492 9.18552 -1.83455e-08 10.4167 0C12.9031 3.70503e-08 15.2876 0.98772 17.0458 2.74587C18.8039 4.50403 19.7917 6.8886 19.7917 9.375C19.7917 11.8614 18.8039 14.246 17.0458 16.0041C15.2876 17.7623 12.9031 18.75 10.4167 18.75ZM32.2917 27.0833C30.0815 27.0833 27.9619 26.2054 26.3991 24.6426C24.8363 23.0798 23.9583 20.9601 23.9583 18.75C23.9583 16.5399 24.8363 14.4202 26.3991 12.8574C27.9619 11.2946 30.0815 10.4167 32.2917 10.4167C34.5018 10.4167 36.6214 11.2946 38.1842 12.8574C39.747 14.4202 40.625 16.5399 40.625 18.75C40.625 20.9601 39.747 23.0798 38.1842 24.6426C36.6214 26.2054 34.5018 27.0833 32.2917 27.0833ZM32.2917 29.1667C34.7781 29.1667 37.1626 30.1544 38.9208 31.9125C40.6789 33.6707 41.6667 36.0553 41.6667 38.5417V39.5833H22.9167V38.5417C22.9167 36.0553 23.9044 33.6707 25.6625 31.9125C27.4207 30.1544 29.8053 29.1667 32.2917 29.1667ZM10.4167 20.8333C11.7846 20.8333 13.1391 21.1028 14.403 21.6263C15.6668 22.1497 16.8151 22.917 17.7824 23.8843C18.7496 24.8516 19.5169 25.9999 20.0404 27.2637C20.5639 28.5275 20.8333 29.8821 20.8333 31.25V39.5833H0V31.25C0 28.4873 1.09747 25.8378 3.05097 23.8843C5.00448 21.9308 7.654 20.8333 10.4167 20.8333Z" fill="#AA2B1D"/>
</svg>
