<svg width="25" height="25" viewBox="0 0 25 25" fill="none" xmlns="http://www.w3.org/2000/svg">
<path d="M12.4998 17.7084C13.0524 17.7084 13.5823 17.4889 13.973 17.0982C14.3637 16.7075 14.5832 16.1776 14.5832 15.6251C14.5832 15.0725 14.3637 14.5426 13.973 14.1519C13.5823 13.7612 13.0524 13.5417 12.4998 13.5417C11.9473 13.5417 11.4174 13.7612 11.0267 14.1519C10.636 14.5426 10.4165 15.0725 10.4165 15.6251C10.4165 16.1776 10.636 16.7075 11.0267 17.0982C11.4174 17.4889 11.9473 17.7084 12.4998 17.7084ZM18.7498 8.33341C19.3024 8.33341 19.8323 8.55291 20.223 8.94361C20.6137 9.33431 20.8332 9.86421 20.8332 10.4167V20.8334C20.8332 21.3859 20.6137 21.9159 20.223 22.3066C19.8323 22.6973 19.3024 22.9167 18.7498 22.9167H6.24984C5.6973 22.9167 5.1674 22.6973 4.7767 22.3066C4.386 21.9159 4.1665 21.3859 4.1665 20.8334V10.4167C4.1665 9.86421 4.386 9.33431 4.7767 8.94361C5.1674 8.55291 5.6973 8.33341 6.24984 8.33341H7.2915V6.25008C7.2915 4.86875 7.84024 3.54399 8.81699 2.56723C9.79374 1.59048 11.1185 1.04175 12.4998 1.04175C13.1838 1.04175 13.8611 1.17647 14.493 1.43821C15.1249 1.69995 15.699 2.0836 16.1827 2.56723C16.6663 3.05087 17.05 3.62503 17.3117 4.25694C17.5735 4.88884 17.7082 5.56611 17.7082 6.25008V8.33341H18.7498ZM12.4998 3.12508C11.671 3.12508 10.8762 3.45432 10.2901 4.04037C9.70408 4.62642 9.37484 5.42128 9.37484 6.25008V8.33341H15.6248V6.25008C15.6248 5.42128 15.2956 4.62642 14.7095 4.04037C14.1235 3.45432 13.3286 3.12508 12.4998 3.12508Z" fill="#AA2B1D"/>
</svg>
