<svg width="59" height="59" viewBox="0 0 59 59" fill="none" xmlns="http://www.w3.org/2000/svg">
<path d="M53.5219 43.7905C53.5219 46.3714 52.4967 48.8465 50.6717 50.6715C48.8467 52.4965 46.3716 53.5217 43.7907 53.5217H34.0594C31.4786 53.5217 29.0034 52.4965 27.1784 50.6715C25.3534 48.8465 24.3282 46.3714 24.3282 43.7905V38.9249H53.5219V43.7905ZM9.73134 7.29834H34.0594C35.3499 7.29834 36.5875 7.81097 37.4999 8.72345C38.4124 9.63593 38.9251 10.8735 38.9251 12.164V34.0592H19.4626V46.2233H9.73134C8.4409 46.2233 7.20331 45.7107 6.29083 44.7982C5.37835 43.8857 4.86572 42.6481 4.86572 41.3577V12.164C4.86572 10.8735 5.37835 9.63593 6.29083 8.72345C7.20331 7.81097 8.4409 7.29834 9.73134 7.29834ZM9.73134 14.5968V19.4624H14.597V14.5968H9.73134ZM34.0594 19.4624V14.5968H19.4626V19.4624H34.0594ZM9.73134 24.328V29.1936H14.597V24.328H9.73134ZM19.4626 24.328V29.1936H34.0594V24.328H19.4626ZM9.73134 34.0592V38.9249H14.597V34.0592H9.73134Z" fill="#9FB608"/>
</svg>
