<svg width="24" height="24" viewBox="0 0 24 24" fill="none" xmlns="http://www.w3.org/2000/svg">
<path fill-rule="evenodd" clip-rule="evenodd" d="M3.30853 4.24895C2.98853 5.11895 3.46853 3.87895 1.52953 10.564C1.17053 11.993 0.710533 12.992 0.380533 14.59C0.1872 15.4673 0.0605334 16.3533 0.000533367 17.248C-0.00476716 17.3957 0.0295187 17.5423 0.0998437 17.6724C0.170169 17.8025 0.273979 17.9114 0.400533 17.988C1.62053 18.498 8.85353 19.5759 10.5225 19.7759C10.6063 19.7781 10.6879 19.7492 10.7517 19.6948C10.8155 19.6404 10.8569 19.5644 10.8681 19.4813C10.8792 19.3983 10.8593 19.314 10.8122 19.2447C10.765 19.1754 10.6939 19.126 10.6125 19.106C8.38453 18.747 2.75853 17.618 1.11053 17.108C1.22053 14.99 2.21953 12.372 2.59853 10.843L3.59853 6.84695C3.77853 5.98695 3.99853 4.22895 4.42753 3.77895C4.69753 3.50895 4.68753 3.56895 5.26753 3.66895C5.56653 3.66895 5.67653 3.11895 5.26753 3.02895C4.15753 2.74995 3.99753 2.49995 3.30753 4.24895M18.1765 6.24695C17.5761 7.72924 17.1759 9.28493 16.9865 10.873C16.9715 10.9482 16.9858 11.0263 17.0265 11.0912C17.0672 11.1562 17.1313 11.2031 17.2056 11.2223C17.2798 11.2415 17.3586 11.2316 17.4257 11.1945C17.4929 11.1574 17.5433 11.096 17.5665 11.023C17.7365 10.553 17.9065 10.094 18.0865 9.63395C18.6465 8.16595 20.2445 5.27795 18.6465 4.95795C18.5765 4.95795 17.9765 4.81795 17.4765 4.76795C16.9765 4.71795 16.7175 5.29795 17.3065 5.45795C17.2965 5.46795 18.3665 5.57695 18.1765 6.24695Z" fill="black"/>
<path fill-rule="evenodd" clip-rule="evenodd" d="M17.8264 2.34004C13.6004 0.862041 14.1104 0.882041 13.2204 0.682041C11.7503 0.343327 10.2512 0.145764 8.74345 0.092041C7.21545 0.182041 6.79545 0.762041 6.32545 2.09104C4.92427 5.94819 3.90701 9.93416 3.28845 13.991C3.21179 14.3769 3.21179 14.7741 3.28845 15.16C3.38186 15.3625 3.54025 15.5279 3.73845 15.63C5.02645 15.9 7.73445 16.629 7.85445 16.629C8.64445 16.799 9.85345 16.999 10.4424 17.139C10.5299 17.1608 10.6223 17.148 10.7006 17.1033C10.7788 17.0586 10.8368 16.9854 10.8624 16.899C10.9824 16.429 10.5324 16.479 8.37445 15.899C4.01745 14.74 4.31745 14.82 4.37745 14.52C4.43745 14.22 4.51745 13.521 4.64745 12.732C6.31545 3.00004 6.60545 4.06904 6.73545 3.55904C6.87545 3.62904 6.99545 3.55904 8.34445 3.89904C8.91445 4.02904 9.49345 4.20904 10.0624 4.36904C13.4704 5.25804 13.5994 4.89904 15.1884 5.30804C15.2583 5.31912 15.3299 5.30512 15.3905 5.26854C15.4511 5.23196 15.4968 5.17514 15.5195 5.10813C15.5422 5.04111 15.5405 4.96822 15.5147 4.90233C15.4889 4.83643 15.4407 4.78179 15.3784 4.74804C14.5084 4.36804 13.0304 4.04804 12.0814 3.74904C10.4006 3.26301 8.66453 2.99416 6.91545 2.94904H6.84545C7.74545 0.502041 7.84545 0.951041 13.5004 1.86104C15.7084 2.49104 14.9084 2.28104 17.0374 2.79004C16.1874 3.51004 15.6574 5.55804 15.0384 7.29604C14.5616 8.6774 14.2269 10.1038 14.0394 11.553C14.0244 11.6282 14.0387 11.7064 14.0794 11.7713C14.1202 11.8363 14.1842 11.8832 14.2585 11.9024C14.3327 11.9216 14.4115 11.9117 14.4787 11.8746C14.5458 11.8375 14.5962 11.7761 14.6194 11.703C14.9661 10.695 15.2491 9.66904 15.4684 8.62504C15.7151 7.71304 16.0118 6.81704 16.3584 5.93704C16.6034 5.15504 16.9114 4.39304 17.2764 3.65904C18.0564 2.76004 20.0244 3.42904 20.2744 4.39904C20.3074 5.11904 20.2344 5.83904 20.0544 6.53704C19.7544 9.80404 18.9554 10.614 19.5044 10.793C19.5419 10.8056 19.5814 10.8106 19.6208 10.8078C19.6601 10.8051 19.6986 10.7945 19.7339 10.7769C19.7692 10.7592 19.8006 10.7348 19.8265 10.705C19.8523 10.6751 19.872 10.6405 19.8844 10.603C20.5875 8.78489 21.1328 6.90965 21.5144 4.99804C21.7034 3.00004 19.4344 1.87104 17.8264 2.34004Z" fill="black"/>
<path fill-rule="evenodd" clip-rule="evenodd" d="M12.3607 8.15609C11.5122 7.73196 10.6124 7.41937 9.68366 7.22609C9.61366 7.20609 7.47466 6.99609 7.41466 6.99609C7.38191 7.01727 7.35377 7.04483 7.33192 7.07713C7.31007 7.10943 7.29496 7.14581 7.28749 7.18408C7.28002 7.22236 7.28035 7.26175 7.28845 7.2999C7.29656 7.33804 7.31228 7.37416 7.33466 7.40609C7.41845 7.52806 7.53688 7.62211 7.67466 7.67609C8.25933 7.91409 8.85566 8.11743 9.46366 8.28609C9.54366 8.28609 12.1817 8.79609 12.2617 8.79609C12.6217 8.86509 12.9907 8.47609 12.3617 8.15609M11.8407 11.9931C10.694 11.4673 9.49079 11.0747 8.25466 10.8231C7.85707 10.7914 7.45705 10.8116 7.06466 10.8831C6.60566 10.9431 6.24566 10.8831 6.29566 11.2331C6.34566 11.5831 6.61566 11.5831 7.06566 11.6431C8.58166 12.0731 10.1237 12.4071 11.6817 12.6421C11.7613 12.6472 11.8402 12.6242 11.9046 12.577C11.9689 12.5299 12.0147 12.4616 12.0337 12.3841C12.0528 12.3066 12.044 12.2248 12.0089 12.1532C11.9738 12.0815 11.9146 12.0245 11.8417 11.9921M22.6227 14.5601C22.031 13.8622 21.2844 13.3122 20.4426 12.9538C19.6007 12.5955 18.6868 12.4387 17.7736 12.496C16.8605 12.5533 15.9733 12.8231 15.1829 13.2839C14.3924 13.7447 13.7205 14.3837 13.2207 15.1501C11.5517 17.6081 12.4207 21.2151 14.0707 22.2741C14.1383 22.3128 14.218 22.3245 14.2939 22.3071C14.3698 22.2897 14.4364 22.2443 14.4804 22.18C14.5244 22.1158 14.5425 22.0373 14.5313 21.9602C14.52 21.8831 14.4802 21.8131 14.4197 21.7641C13.0997 20.8451 12.5107 17.6881 13.9997 15.7091C14.4311 15.1033 14.9938 14.6028 15.6458 14.245C16.2979 13.8873 17.0223 13.6815 17.765 13.643C18.5078 13.6045 19.2496 13.7344 19.9351 14.0229C20.6205 14.3114 21.232 14.7511 21.7237 15.3091C24.1617 18.1971 22.7227 22.5841 18.4167 23.0931C17.6305 23.2036 16.8298 23.1456 16.0677 22.9231C16.0237 22.9086 15.9773 22.903 15.9311 22.9065C15.8849 22.91 15.8399 22.9225 15.7986 22.9434C15.7572 22.9643 15.7204 22.9932 15.6903 23.0283C15.6601 23.0634 15.6371 23.1041 15.6227 23.1481C15.6082 23.1921 15.6026 23.2385 15.6061 23.2847C15.6096 23.3308 15.6221 23.3759 15.643 23.4172C15.6639 23.4585 15.6927 23.4953 15.7278 23.5255C15.763 23.5557 15.8037 23.5786 15.8477 23.5931C16.7009 23.871 17.6031 23.9664 18.4957 23.8731C19.5641 23.85 20.6038 23.5232 21.4933 22.9307C22.3827 22.3383 23.085 21.5048 23.5179 20.5278C23.9509 19.5507 24.0966 18.4706 23.9381 17.4137C23.7795 16.3569 23.3233 15.3671 22.6227 14.5601Z" fill="black"/>
<path fill-rule="evenodd" clip-rule="evenodd" d="M16.7473 20.576C17.9063 20.646 19.2753 17.418 19.7453 16.379C19.8926 16.2139 19.9867 16.0083 20.0153 15.789C20.0115 15.7132 19.9838 15.6406 19.9362 15.5815C19.8887 15.5225 19.8237 15.4799 19.7505 15.46C19.6773 15.44 19.5997 15.4437 19.5288 15.4704C19.4578 15.4972 19.3971 15.5457 19.3553 15.609C19.1153 15.899 16.6073 19.546 16.6673 19.606C16.4673 19.606 15.4483 18.427 15.3083 18.337C15.1683 18.247 14.7083 18.507 14.9383 18.847C15.3783 19.477 16.0683 20.546 16.7473 20.576Z" fill="black"/>
</svg>
