<svg width="50" height="50" viewBox="0 0 50 50" fill="none" xmlns="http://www.w3.org/2000/svg">
<path d="M6.75195 4.00391L4.00391 6.62598V43.3887L6.55469 45.9961H43.3887L45.9961 43.3887V6.61426L43.3887 4.00391H6.75195ZM24.1211 7.03809V10.9375H25.8789V7.03809C28.3496 7.06738 30.8105 7.2168 33.1641 7.49023L31.9629 12.2852L33.6621 12.7148L34.9121 7.71973C37.5684 8.10742 40.0391 8.65918 42.1875 9.375L37.5 20.3125C34.9512 19.6777 31.3574 19.2969 27.5879 19.1797C27.9883 19.7168 28.2227 20.3809 28.2227 21.0938C28.2227 22.8613 26.7676 24.3164 25 24.3164C23.2324 24.3164 21.7773 22.8613 21.7773 21.0938C21.7773 20.3809 22.0117 19.7168 22.4121 19.1797C18.6328 19.2969 15.0488 19.6777 12.5 20.3125L7.8125 9.375C9.96094 8.65918 12.4316 8.10742 15.0879 7.71973L16.3379 12.7148L18.0371 12.2852L16.8359 7.49023C19.1895 7.2168 21.6504 7.06738 24.1211 7.03809ZM21.123 9.0293L19.502 9.7207L23.2227 18.4082C23.7207 18.0859 24.2969 17.8906 24.9219 17.8711L21.123 9.0293ZM25 19.6289C24.1797 19.6289 23.5352 20.2734 23.5352 21.0938C23.5352 21.9141 24.1797 22.5586 25 22.5586C25.8203 22.5586 26.4648 21.9141 26.4648 21.0938C26.4648 20.2734 25.8203 19.6289 25 19.6289ZM12.5 35.0586H37.5V36.8164H12.5V35.0586ZM12.5 39.7461H37.5V41.5039H12.5V39.7461Z" fill="#AA2B1D"/>
</svg>
